<svg xmlns="http://www.w3.org/2000/svg" width="600" height="62"><path d="M0 1h14.8v47.9H0zm42.7 48.6c-14.4 0-22.8-10.8-22.8-24.6 0-14.1 8.3-24.7 23-24.7 14.4 0 22.6 10.3 22.6 24.2 0 13.8-8.1 25.1-22.8 25.1m.2-38.5c-6.6 0-7.3 9.5-7.3 14.2s.5 13.4 7 13.4c6.9 0 7-8.8 7-13.6v-.5c0-4.8 0-13.5-6.7-13.5m51 20.4h-8.3v17.4H70.7V1h20.5c5.2 0 10.8.4 14.9 3.8 3.5 2.9 5.3 7 5.3 11.5 0 10.1-8.1 15.2-17.5 15.2M90.7 12h-5.4v9.3h4.9c3.4 0 6.5-.7 6.5-4.7 0-3.8-2.8-4.6-6-4.6" fill="#e60012"/><path d="M132.2.9h5.8v47.9h-5.8zm32.7 47.9V27c0-4.4.5-10.1-5.5-10.1-7 0-7.5 7.7-7.5 12.8v19.1h-5.2V13.4h4.9v5.5c1.9-4.3 4.3-6.5 9.1-6.5 2.7 0 5.6.9 7.4 3.1 2.4 2.9 2.2 7.3 2.2 10.8v22.5h-5.4zm22.8 1c-7 0-11.3-3.2-12.7-10.1l4.9-1.1c.9 4.6 3.5 6.8 8.2 6.8 3.5 0 7.1-1.9 7.1-5.8 0-6.4-11.3-5.9-15.9-9.9-1.9-1.7-3-4.1-3-6.6 0-6.4 5.5-10.6 11.6-10.6 3.2 0 6.3 1.1 8.5 3.5 1.5 1.7 2 3.4 2.7 5.5l-4.6 1.1c-1.1-3.4-3.1-5.7-6.9-5.7-3.2 0-6.1 1.9-6.1 5.4 0 2.9 2.1 4.2 4.6 5 6.1 1.9 14.5 3.5 14.5 11.6-.1 7.2-6.4 10.9-12.9 10.9m28.7 0c-9.5 0-9-7-9-14.3V17.7h-5.1v-4.3h5.1V5.1l5.2-.5v8.8h7v4.3h-7v17.8c0 1.9-.1 5.7.7 7.5.9 1.8 2.9 2.2 4.7 2.2 1.1 0 2.1-.1 3.2-.4v4.4c-1.6.3-3.2.6-4.8.6M224.9 1h5.7v6.2h-5.7V1zm.3 12.4h5.2v35.4h-5.2V13.4zm24.4 36.4c-9.5 0-9-7-9-14.3V17.7h-5.1v-4.3h5.1V5.1l5.2-.5v8.8h7v4.3h-7v17.8c0 1.9-.1 5.7.7 7.5.9 1.8 2.9 2.2 4.7 2.2 1.1 0 2.1-.1 3.2-.4v4.4c-1.6.3-3.1.6-4.8.6m27.5-1v-5.3c-2.1 4.1-4.4 6.3-9.3 6.3-2.5 0-5.2-.7-6.9-2.7-2.7-2.9-2.5-7.8-2.5-11.4V13.4h5.2V37c0 4.2 0 8.4 5.4 8.4 3.7 0 5.8-2.7 6.8-6 1-3.2.9-6.5.9-9.8V13.4h5.2v35.4h-4.8zm24.1 1c-9.5 0-9-7-9-14.3V17.7h-5.1v-4.3h5.1V5.1l5.2-.5v8.8h7v4.3h-7v17.8c0 1.9-.1 5.7.7 7.5.9 1.8 2.9 2.2 4.7 2.2 1.1 0 2.1-.1 3.2-.4v4.4c-1.5.3-3.1.6-4.8.6m12.6-18v.2c0 5.6 1 13.4 8.2 13.4 4.5 0 6.1-3.2 7.3-7l4.9 1.1c-1.6 6.4-5.5 10.3-12.3 10.3-10.4 0-13.6-9.3-13.6-18.2 0-8.8 3.3-19.2 13.8-19.2 4.4 0 8 2.1 10.1 6 2.4 4.6 2.4 8.3 2.6 13.4h-21zm7.6-14.9c-5.5 0-7 6.1-7.4 10.5h14.7c0-4.8-1.5-10.5-7.3-10.5m42.8 32.9c-10.6 0-13.5-9.7-13.5-18.7s2.9-18.7 13.6-18.7c11 0 13.6 9.9 13.6 19.1 0 9-3.1 18.3-13.7 18.3m.1-32.9c-7 0-7.8 9-7.8 14.2s.8 14.3 7.8 14.3 7.8-9.1 7.8-14.2c0-5.2-.8-14.3-7.8-14.3m31.6-12.5c-5.9 0-5.4 4.5-5.4 9h6.5v4.3h-6.5v31.1h-5.2V17.7h-5.2v-4.3h5.2V12c0-7 1.4-12 9.4-12 1.4 0 2.7.1 4 .4v4.3a12.65 12.65 0 0 0-2.8-.3m42.6 23.9c-4.2 1.5-9 1.1-13.3 1.1v19.5h-5.8V1h10.3c5 0 10.1.4 13.7 4.2 2.5 2.7 3.7 6.5 3.7 10.1 0 6-2.8 11-8.6 13m-5.8-22.6h-7.5v18.8h4.4c7 0 11.3-1.2 11.3-9.3.1-5.1-2.5-9.5-8.2-9.5m37.6 43.1v-22c0-4.2.2-10-5.7-10-6.6 0-7.4 8.7-7.4 13.5v18.5H452V.9h5.2v17.9c1.6-4.2 4.3-6.5 8.8-6.5 2.6 0 5.3.9 7 2.8 2.7 3 2.4 7.8 2.4 11.6v22h-5.1zm21.9 3.6c-1.6 5-3.2 9.2-9.3 9.2-1.2 0-2.3-.1-3.4-.4v-4.3c.8.1 1.6.3 2.4.3s2.2-.1 2.8-.5c2.2-1.2 3.7-7.3 4.3-9.5l-10-33.8h5.2l7.3 26.5 7.8-26.5h5l-12.1 39zm25.9-2.6c-7 0-11.3-3.2-12.7-10.1l4.9-1.1c.9 4.6 3.5 6.8 8.2 6.8 3.5 0 7.1-1.9 7.1-5.8 0-6.4-11.3-5.9-15.9-9.9-1.9-1.7-3-4.1-3-6.6 0-6.4 5.5-10.6 11.6-10.6 3.2 0 6.3 1.1 8.5 3.5 1.5 1.7 2 3.4 2.7 5.5l-4.6 1.1c-1.2-3.4-3.1-5.7-6.9-5.7-3.2 0-6.1 1.9-6.1 5.4 0 2.9 2.1 4.2 4.6 5 6.1 1.9 14.5 3.5 14.5 11.6-.1 7.2-6.4 10.9-12.9 10.9M535.8 1h5.7v6.2h-5.7V1zm.3 12.4h5.2v35.4h-5.2V13.4zm32.4 32.7c-2.2 2.7-5.7 3.7-9.1 3.7-10.5 0-12.8-9.9-12.8-18.5 0-8.9 2.4-18.9 13.2-18.9 3.2 0 6.1.9 8.3 3.4s2.8 5.5 3.4 8.6l-5.3 1.1c-.7-4.2-1.2-8.6-6.6-8.6-5 0-6.2 4.1-6.8 8.3-.4 2.3-.4 4.7-.4 7.1 0 5.2.6 13.1 7.5 13.1 5.2 0 6-4.5 6.4-8.5l5.3.6c-.6 3.2-1 5.9-3.1 8.6m18.6 3.7c-7 0-11.3-3.2-12.7-10.1l4.9-1.1c.9 4.6 3.5 6.8 8.2 6.8 3.5 0 7.1-1.9 7.1-5.8 0-6.4-11.4-5.9-15.9-9.9-1.9-1.7-3-4.1-3-6.6 0-6.4 5.5-10.6 11.6-10.6 3.2 0 6.3 1.1 8.5 3.5 1.5 1.7 2 3.4 2.7 5.5l-4.6 1.1c-1.2-3.4-3.1-5.7-6.9-5.7-3.2 0-6.1 1.9-6.1 5.4 0 2.9 2.1 4.2 4.6 5 6.1 1.9 14.5 3.5 14.5 11.6 0 7.2-6.3 10.9-12.9 10.9"/></svg>