<?xml version="1.0" encoding="UTF-8" standalone="no"?>
<svg
   xmlns:dc="http://purl.org/dc/elements/1.1/"
   xmlns:cc="http://creativecommons.org/ns#"
   xmlns:rdf="http://www.w3.org/1999/02/22-rdf-syntax-ns#"
   xmlns:svg="http://www.w3.org/2000/svg"
   xmlns="http://www.w3.org/2000/svg"
   viewBox="0 0 179.41333 126.56"
   height="126.56"
   width="179.41333"
   xml:space="preserve"
   id="svg2"
   version="1.1"><metadata
     id="metadata8"><rdf:RDF><cc:Work
         rdf:about=""><dc:format>image/svg+xml</dc:format><dc:type
           rdf:resource="http://purl.org/dc/dcmitype/StillImage" /></cc:Work></rdf:RDF></metadata><defs
     id="defs6" /><g
     transform="matrix(1.3333333,0,0,-1.3333333,0,126.56)"
     id="g10"><g
       transform="scale(0.1)"
       id="g12"><path
         id="path14"
         style="fill:#29224e;fill-opacity:1;fill-rule:nonzero;stroke:none"
         d="m 133.457,242.184 -5.355,18.015 h -0.254 l -5.614,-18.015 z m -13.43,34.757 c 0.168,0.516 0.508,0.852 1.106,0.852 h 13.851 c 0.598,0 0.938,-0.336 1.106,-0.852 l 19.551,-56.089 C 155.813,220.344 155.551,220 155.043,220 H 141.02 c -0.594,0 -0.938,0.344 -1.102,0.852 l -2.723,8.921 h -18.781 l -2.723,-8.921 C 115.523,220.344 115.18,220 114.59,220 h -13.942 c -0.511,0 -0.7652,0.344 -0.593,0.852 l 19.972,56.089" /><path
         id="path16"
         style="fill:#29224e;fill-opacity:1;fill-rule:nonzero;stroke:none"
         d="m 207.75,242.184 -5.355,18.015 h -0.254 l -5.614,-18.015 z m -13.43,34.757 c 0.168,0.516 0.508,0.852 1.106,0.852 h 13.851 c 0.594,0 0.934,-0.336 1.106,-0.852 l 19.551,-56.089 c 0.168,-0.508 -0.09,-0.852 -0.598,-0.852 h -14.023 c -0.594,0 -0.938,0.344 -1.102,0.852 l -2.723,8.921 h -18.785 l -2.719,-8.921 C 189.813,220.344 189.473,220 188.883,220 h -13.942 c -0.511,0 -0.765,0.344 -0.593,0.852 l 19.972,56.089" /><path
         id="path18"
         style="fill:#29224e;fill-opacity:1;fill-rule:nonzero;stroke:none"
         d="m 252.457,276.941 c 0,0.516 0.34,0.852 0.848,0.852 h 13.261 c 0.508,0 0.852,-0.336 0.852,-0.852 V 233.77 c 0,-0.34 0.172,-0.512 0.508,-0.512 h 24.476 c 0.512,0 0.852,-0.336 0.852,-0.852 v -11.554 c 0,-0.508 -0.34,-0.852 -0.852,-0.852 h -39.097 c -0.508,0 -0.848,0.344 -0.848,0.852 v 56.089" /><path
         id="path20"
         style="fill:#29224e;fill-opacity:1;fill-rule:nonzero;stroke:none"
         d="m 332.012,231.305 h 6.801 c 4.671,0 7.05,2.293 7.05,6.543 0,3.992 -2.379,6.461 -7.05,6.461 h -6.801 c -0.336,0 -0.508,-0.172 -0.508,-0.508 v -11.988 c 0,-0.336 0.172,-0.508 0.508,-0.508 z m 6.035,23.285 c 4.508,0 6.887,1.957 6.887,5.953 0,4.074 -2.297,5.945 -6.887,5.945 h -6.035 c -0.336,0 -0.508,-0.172 -0.508,-0.508 v -10.878 c 0,-0.34 0.172,-0.512 0.508,-0.512 z m -21.504,22.351 c 0,0.516 0.344,0.852 0.852,0.852 h 23.543 c 12.917,0 18.867,-6.199 18.867,-15.383 0,-5.949 -2.719,-10.113 -7.055,-12.41 v -0.164 c 4.254,-1.617 8.074,-6.461 8.074,-13.176 0,-11.305 -7.988,-16.66 -20.14,-16.66 h -23.289 c -0.508,0 -0.852,0.344 -0.852,0.852 v 56.089" /><path
         id="path22"
         style="fill:#29224e;fill-opacity:1;fill-rule:nonzero;stroke:none"
         d="m 415.141,237.422 c 0.679,1.957 0.851,4.59 0.851,11.476 0,6.883 -0.172,9.52 -0.851,11.473 -1.02,3.227 -3.657,5.098 -7.391,5.098 -3.742,0 -6.379,-1.871 -7.398,-5.098 -0.68,-1.953 -0.848,-4.59 -0.848,-11.473 0,-6.886 0.168,-9.519 0.848,-11.476 1.019,-3.227 3.656,-5.098 7.398,-5.098 3.734,0 6.371,1.871 7.391,5.098 z m -29.067,-4.246 c -1.363,4.418 -1.699,7.816 -1.699,15.722 0,7.903 0.336,11.301 1.699,15.719 3.063,9.438 11.477,14.196 21.676,14.196 10.195,0 18.613,-4.758 21.668,-14.196 1.445,-4.418 1.699,-7.816 1.699,-15.719 0,-7.906 -0.254,-11.304 -1.699,-15.722 -3.055,-9.438 -11.473,-14.196 -21.668,-14.196 -10.199,0 -18.613,4.758 -21.676,14.196" /><path
         id="path24"
         style="fill:#29224e;fill-opacity:1;fill-rule:nonzero;stroke:none"
         d="m 486.371,259.008 c 0,3.742 -2.547,6.125 -6.801,6.125 h -7.988 c -0.336,0 -0.508,-0.172 -0.508,-0.516 v -11.215 c 0,-0.339 0.172,-0.511 0.508,-0.511 h 7.988 c 4.254,0 6.801,2.382 6.801,6.117 z M 487.141,220 c -0.77,0 -1.024,0.254 -1.278,0.852 l -8.754,19.714 h -5.527 c -0.336,0 -0.508,-0.171 -0.508,-0.507 v -19.207 c 0,-0.508 -0.344,-0.852 -0.847,-0.852 h -13.262 c -0.512,0 -0.852,0.344 -0.852,0.852 v 56.089 c 0,0.516 0.34,0.852 0.852,0.852 h 23.543 c 13.258,0 20.82,-7.734 20.82,-18.613 0,-7.223 -3.398,-13.086 -9.515,-16.149 l 10.625,-22.011 c 0.253,-0.512 0,-1.02 -0.598,-1.02 h -14.699" /><path
         id="path26"
         style="fill:#29224e;fill-opacity:1;fill-rule:nonzero;stroke:none"
         d="m 524.797,248.898 c 0,7.903 0.336,11.301 1.695,15.719 3.063,9.438 11.477,14.196 21.762,14.196 10.625,0 17.762,-4.926 20.988,-12.325 0.262,-0.593 0.09,-1.101 -0.426,-1.355 l -11.046,-4.68 c -0.508,-0.254 -1.016,-0.082 -1.278,0.344 -1.949,3.144 -4.246,4.672 -8.238,4.672 -3.914,0 -6.461,-1.871 -7.484,-5.098 -0.676,-2.043 -0.848,-4.59 -0.848,-11.473 0,-6.886 0.254,-9.519 0.848,-11.476 1.109,-3.227 3.742,-5.098 7.906,-5.098 3.742,0 6.715,1.617 7.652,4.59 0.336,1.02 0.508,2.207 0.508,3.738 0,0.34 -0.172,0.508 -0.508,0.508 h -6.293 c -0.508,0 -0.851,0.344 -0.851,0.852 v 9.605 c 0,0.512 0.343,0.848 0.851,0.848 h 20.653 c 0.511,0 0.851,-0.336 0.851,-0.848 v -4.422 c 0,-5.519 -0.34,-9.855 -1.527,-13.425 -3.063,-9.606 -11.223,-14.79 -21.758,-14.79 -10.285,0 -18.699,4.758 -21.762,14.196 -1.359,4.418 -1.695,7.816 -1.695,15.722" /><path
         id="path28"
         style="fill:#29224e;fill-opacity:1;fill-rule:nonzero;stroke:none"
         d="m 633.598,242.355 v 34.586 c 0,0.516 0.34,0.852 0.851,0.852 h 13.254 c 0.512,0 0.852,-0.336 0.852,-0.852 v -35.523 c 0,-5.777 3.226,-9.094 8.078,-9.094 5.012,0 7.984,3.317 7.984,9.094 v 35.523 c 0,0.516 0.34,0.852 0.852,0.852 h 13.258 c 0.511,0 0.847,-0.336 0.847,-0.852 v -34.586 c 0,-15.386 -9.179,-23.375 -22.941,-23.375 -14.028,0 -23.035,7.989 -23.035,23.375" /><path
         id="path30"
         style="fill:#29224e;fill-opacity:1;fill-rule:nonzero;stroke:none"
         d="m 705.758,276.941 c 0,0.516 0.34,0.852 0.847,0.852 h 12.497 c 0.593,0 1.191,-0.254 1.445,-0.852 l 17.422,-32.718 h 0.344 v 32.718 c 0,0.516 0.339,0.852 0.847,0.852 h 11.899 c 0.507,0 0.851,-0.336 0.851,-0.852 v -56.089 c 0,-0.508 -0.344,-0.852 -0.851,-0.852 h -12.496 c -0.594,0 -1.192,0.254 -1.446,0.852 l -17.25,32.632 h -0.512 v -32.632 c 0,-0.508 -0.335,-0.852 -0.847,-0.852 h -11.903 c -0.507,0 -0.847,0.344 -0.847,0.852 v 56.089" /><path
         id="path32"
         style="fill:#29224e;fill-opacity:1;fill-rule:nonzero;stroke:none"
         d="m 778.262,276.941 c 0,0.516 0.343,0.852 0.847,0.852 h 13.262 c 0.512,0 0.852,-0.336 0.852,-0.852 v -56.089 c 0,-0.508 -0.34,-0.852 -0.852,-0.852 h -13.262 c -0.504,0 -0.847,0.344 -0.847,0.852 v 56.089" /><path
         id="path34"
         style="fill:#29224e;fill-opacity:1;fill-rule:nonzero;stroke:none"
         d="m 835.211,220 c -0.598,0 -0.934,0.254 -1.106,0.852 l -18.441,56.007 c -0.172,0.508 0.164,0.934 0.762,0.934 h 13.941 c 0.594,0 0.934,-0.254 1.102,-0.852 l 10.285,-34.839 h 0.258 l 9.941,34.839 c 0.172,0.598 0.512,0.852 1.106,0.852 h 13.855 c 0.59,0 0.852,-0.426 0.68,-0.934 L 849.148,220.852 C 848.98,220.254 848.637,220 848.043,220 h -12.832" /><path
         id="path36"
         style="fill:#29224e;fill-opacity:1;fill-rule:nonzero;stroke:none"
         d="m 890.035,276.941 c 0,0.516 0.34,0.852 0.848,0.852 h 37.824 c 0.512,0 0.848,-0.336 0.848,-0.852 V 265.98 c 0,-0.511 -0.336,-0.847 -0.848,-0.847 h -23.203 c -0.336,0 -0.508,-0.172 -0.508,-0.516 v -8.754 c 0,-0.336 0.172,-0.508 0.508,-0.508 h 19.039 c 0.512,0 0.848,-0.339 0.848,-0.847 v -10.707 c 0,-0.516 -0.336,-0.852 -0.848,-0.852 h -19.039 c -0.336,0 -0.508,-0.172 -0.508,-0.511 v -9.262 c 0,-0.344 0.172,-0.508 0.508,-0.508 h 23.203 c 0.512,0 0.848,-0.344 0.848,-0.855 v -10.961 c 0,-0.508 -0.336,-0.852 -0.848,-0.852 h -37.824 c -0.508,0 -0.848,0.344 -0.848,0.852 v 56.089" /><path
         id="path38"
         style="fill:#29224e;fill-opacity:1;fill-rule:nonzero;stroke:none"
         d="m 984.641,259.008 c 0,3.742 -2.551,6.125 -6.805,6.125 h -7.988 c -0.336,0 -0.508,-0.172 -0.508,-0.516 v -11.215 c 0,-0.339 0.172,-0.511 0.508,-0.511 h 7.988 c 4.254,0 6.805,2.382 6.805,6.117 z M 985.406,220 c -0.765,0 -1.019,0.254 -1.273,0.852 l -8.758,19.714 h -5.527 c -0.336,0 -0.508,-0.171 -0.508,-0.507 V 220.852 C 969.34,220.344 969,220 968.492,220 H 955.23 c -0.507,0 -0.851,0.344 -0.851,0.852 v 56.089 c 0,0.516 0.344,0.852 0.851,0.852 h 23.543 c 13.258,0 20.821,-7.734 20.821,-18.613 0,-7.223 -3.399,-13.086 -9.516,-16.149 L 1000.7,221.02 c 0.26,-0.512 0,-1.02 -0.59,-1.02 h -14.704" /><path
         id="path40"
         style="fill:#29224e;fill-opacity:1;fill-rule:nonzero;stroke:none"
         d="m 1022.38,227.227 c -0.42,0.336 -0.51,0.933 -0.09,1.359 l 7.66,9.008 c 0.33,0.426 0.85,0.426 1.18,0.086 3.49,-3.063 8.93,-5.782 14.71,-5.782 5.35,0 8.16,2.207 8.16,5.442 0,2.465 -1.62,4.078 -7.31,4.844 l -3.06,0.421 c -12.5,1.79 -19.29,7.395 -19.29,18.192 0,10.797 8.41,18.016 21.5,18.016 7.99,0 15.47,-2.465 20.65,-6.372 0.42,-0.339 0.51,-0.765 0.17,-1.273 l -6.37,-9.27 c -0.34,-0.421 -0.77,-0.507 -1.19,-0.253 -4.08,2.718 -8.42,4.335 -13.01,4.335 -4.24,0 -6.37,-2.039 -6.37,-4.843 0,-2.551 1.87,-4.164 7.39,-4.848 l 3.06,-0.426 c 12.67,-1.781 19.13,-7.39 19.13,-18.351 0,-10.711 -8.16,-18.532 -23.63,-18.532 -9.43,0 -18.96,3.993 -23.29,8.247" /><path
         id="path42"
         style="fill:#29224e;fill-opacity:1;fill-rule:nonzero;stroke:none"
         d="m 1093.27,276.941 c 0,0.516 0.34,0.852 0.85,0.852 h 13.26 c 0.51,0 0.85,-0.336 0.85,-0.852 v -56.089 c 0,-0.508 -0.34,-0.852 -0.85,-0.852 h -13.26 c -0.51,0 -0.85,0.344 -0.85,0.852 v 56.089" /><path
         id="path44"
         style="fill:#29224e;fill-opacity:1;fill-rule:nonzero;stroke:none"
         d="m 1147.33,220 h -0.25 c -0.18,0 -0.26,0.082 -0.43,0.254 -0.08,0.09 -0.17,0.172 -0.17,0.344 v 0.254 43.171 c 0,0.258 -0.17,0.426 -0.43,0.512 h -0.08 -14.19 -0.26 c -0.17,0 -0.26,0.082 -0.34,0.172 l -0.08,0.082 c 0,0 0,0.09 -0.09,0.09 -0.08,0.164 -0.08,0.336 -0.08,0.508 v 11.554 c 0,0.426 0.25,0.77 0.59,0.852 h 0.26 44.36 c 0.26,0 0.43,-0.082 0.6,-0.254 0,0 0.08,-0.082 0.08,-0.172 0.09,-0.082 0.17,-0.254 0.17,-0.426 v -11.554 c 0,-0.254 -0.08,-0.508 -0.25,-0.68 -0.09,-0.09 -0.26,-0.172 -0.43,-0.172 h -0.17 -14.19 c -0.17,0 -0.26,0 -0.34,-0.086 -0.09,0 -0.09,-0.086 -0.17,-0.168 v -0.258 -43.171 -0.254 c -0.09,-0.254 -0.17,-0.344 -0.42,-0.516 C 1160.93,220 1160.76,220 1160.59,220 h -13.26" /><path
         id="path46"
         style="fill:#29224e;fill-opacity:1;fill-rule:nonzero;stroke:none"
         d="m 1213.97,220 c -0.51,0 -0.85,0.344 -0.85,0.852 v 21.503 l -17.51,34.504 c -0.17,0.508 0.08,0.934 0.68,0.934 h 13.34 c 0.6,0 1.02,-0.254 1.36,-0.852 l 9.69,-19.714 h 0.26 l 9.51,19.714 c 0.26,0.598 0.77,0.852 1.37,0.852 h 13.08 c 0.69,0 0.86,-0.426 0.69,-0.934 l -17.51,-34.504 v -21.503 c 0,-0.508 -0.35,-0.852 -0.85,-0.852 h -13.26" /><path
         id="path48"
         style="fill:#29224e;fill-opacity:1;fill-rule:nonzero;stroke:none"
         d="m 447.234,104.59 h 12.922 c 7.477,0 12.407,2.637 14.449,8.754 0.93,2.804 1.356,5.777 1.356,15.554 0,9.774 -0.426,12.747 -1.356,15.551 -2.042,6.121 -6.972,8.754 -14.449,8.754 h -12.922 c -0.339,0 -0.511,-0.172 -0.511,-0.508 v -47.597 c 0,-0.336 0.172,-0.508 0.511,-0.508 z m -5.355,52.351 c 0,0.516 0.344,0.852 0.851,0.852 h 18.106 c 9.602,0 15.894,-3.824 18.441,-11.727 1.106,-3.398 1.618,-6.628 1.618,-17.168 0,-10.539 -0.512,-13.769 -1.618,-17.168 C 476.73,103.824 470.438,100 460.836,100 H 442.73 c -0.507,0 -0.851,0.344 -0.851,0.852 v 56.089" /><path
         id="path50"
         style="fill:#29224e;fill-opacity:1;fill-rule:nonzero;stroke:none"
         d="m 511.578,156.941 c 0,0.516 0.34,0.852 0.848,0.852 h 33.062 c 0.512,0 0.852,-0.336 0.852,-0.852 v -2.886 c 0,-0.508 -0.34,-0.852 -0.852,-0.852 h -28.554 c -0.34,0 -0.512,-0.172 -0.512,-0.508 v -20.566 c 0,-0.344 0.172,-0.512 0.512,-0.512 h 24.558 c 0.516,0 0.852,-0.344 0.852,-0.851 v -2.891 c 0,-0.508 -0.336,-0.848 -0.852,-0.848 h -24.558 c -0.34,0 -0.512,-0.172 -0.512,-0.507 v -21.422 c 0,-0.336 0.172,-0.508 0.512,-0.508 h 28.554 c 0.512,0 0.852,-0.344 0.852,-0.852 v -2.886 C 546.34,100.344 546,100 545.488,100 h -33.062 c -0.508,0 -0.848,0.344 -0.848,0.852 v 56.089" /><path
         id="path52"
         style="fill:#29224e;fill-opacity:1;fill-rule:nonzero;stroke:none"
         d="m 575.84,156.941 c 0,0.516 0.344,0.852 0.848,0.852 h 3.148 c 0.594,0 1.105,-0.172 1.441,-0.852 l 28.817,-47.507 h 0.254 v 47.507 c 0,0.516 0.34,0.852 0.847,0.852 h 3.145 c 0.515,0 0.851,-0.336 0.851,-0.852 v -56.089 c 0,-0.508 -0.336,-0.852 -0.851,-0.852 h -3.317 c -0.503,0 -1.019,0.172 -1.445,0.852 l -28.555,47.593 h -0.339 v -47.593 c 0,-0.508 -0.336,-0.852 -0.848,-0.852 h -3.148 c -0.504,0 -0.848,0.344 -0.848,0.852 v 56.089" /><path
         id="path54"
         style="fill:#29224e;fill-opacity:1;fill-rule:nonzero;stroke:none"
         d="m 648.176,156.941 c 0,0.516 0.34,0.852 0.847,0.852 h 3.235 c 0.594,0 1.019,-0.254 1.273,-0.852 l 18.782,-41.39 h 0.339 l 18.36,41.39 c 0.254,0.598 0.676,0.852 1.191,0.852 h 3.309 c 0.511,0 0.855,-0.336 0.855,-0.852 v -56.089 c 0,-0.508 -0.344,-0.852 -0.855,-0.852 h -3.145 c -0.508,0 -0.847,0.344 -0.847,0.852 v 45.214 h -0.254 l -16.657,-36.632 c -0.339,-0.68 -0.683,-0.934 -1.535,-0.934 h -1.695 c -0.77,0 -1.106,0.254 -1.445,0.934 l -16.657,36.632 h -0.257 v -45.214 c 0,-0.508 -0.34,-0.852 -0.852,-0.852 h -3.145 c -0.507,0 -0.847,0.344 -0.847,0.852 v 56.089" /><path
         id="path56"
         style="fill:#29224e;fill-opacity:1;fill-rule:nonzero;stroke:none"
         d="m 757.645,119.719 -10.79,30.258 h -0.253 l -10.879,-30.258 z m -13.426,37.222 c 0.172,0.516 0.511,0.852 1.019,0.852 h 3.063 c 0.594,0 0.847,-0.336 1.019,-0.852 l 20.059,-56.089 C 769.547,100.344 769.293,100 768.785,100 h -3.316 c -0.598,0 -0.938,0.172 -1.106,0.852 l -5.101,14.191 h -25.157 l -5.097,-14.191 C 728.75,100.172 728.414,100 727.898,100 h -3.312 c -0.508,0 -0.762,0.344 -0.594,0.852 l 20.227,56.089" /><path
         id="path58"
         style="fill:#29224e;fill-opacity:1;fill-rule:nonzero;stroke:none"
         d="m 829.984,141.816 c 0,7.223 -4.589,11.387 -12.836,11.387 h -14.785 c -0.343,0 -0.511,-0.172 -0.511,-0.508 v -21.757 c 0,-0.34 0.168,-0.512 0.511,-0.512 h 14.785 c 8.247,0 12.836,4.082 12.836,11.39 z M 831.262,100 c -0.516,0 -0.77,0.172 -1.024,0.766 l -12.152,25.07 h -0.852 -14.871 c -0.343,0 -0.511,-0.168 -0.511,-0.508 V 100.852 C 801.852,100.344 801.516,100 801,100 h -3.145 c -0.507,0 -0.847,0.344 -0.847,0.852 v 56.089 c 0,0.516 0.34,0.852 0.847,0.852 h 19.379 c 10.879,0 17.594,-6.117 17.594,-15.977 0,-7.988 -4.418,-13.515 -11.816,-15.296 l 12.586,-25.586 C 835.934,100.426 835.68,100 835.172,100 h -3.91" /><path
         id="path60"
         style="fill:#29224e;fill-opacity:1;fill-rule:nonzero;stroke:none"
         d="m 866.277,156.941 c 0,0.516 0.344,0.852 0.852,0.852 h 3.144 c 0.512,0 0.848,-0.336 0.848,-0.852 v -33.312 l 27.539,33.402 c 0.512,0.508 0.852,0.762 1.445,0.762 h 3.997 c 0.507,0 0.765,-0.508 0.339,-0.934 l -18.273,-21.843 19.715,-34.082 c 0.344,-0.508 0.09,-0.934 -0.422,-0.934 h -3.824 c -0.598,0 -0.934,0.254 -1.278,0.766 l -17.421,30.343 -11.817,-14.113 v -16.144 c 0,-0.508 -0.336,-0.852 -0.848,-0.852 h -3.144 c -0.508,0 -0.852,0.344 -0.852,0.852 v 56.089" /><path
         id="path62"
         style="fill:#29224e;fill-opacity:1;fill-rule:nonzero;stroke:none"
         d="m 839.563,525.699 c -10.719,4.793 -21.887,8.797 -40.098,19.875 -51.152,31.188 -66.711,77.61 -37.949,158.59 16.648,46.887 24.64,86.426 20.527,129.082 -0.578,0.391 -1.168,0.754 -1.75,1.129 -2.676,-53.574 -22.426,-86.879 -57.813,-143.262 -74.964,-119.453 1.141,-206.992 37.301,-234.218 31.895,16.07 59.274,39.804 79.782,68.804" /><path
         id="path64"
         style="fill:#29224e;fill-opacity:1;fill-rule:nonzero;stroke:none"
         d="m 687.754,695.484 c 57.793,68.028 76.582,99.395 80.488,146.196 -0.625,0.343 -1.226,0.726 -1.847,1.07 -13.387,-56.008 -46.969,-85.687 -135.461,-144.629 -95.329,-63.473 -91.039,-172.59 -66.774,-240.508 29.57,-15.172 63.028,-23.785 98.516,-23.785 7.566,0 15.039,0.395 22.406,1.156 -68.82,104.418 -64.047,181.965 2.672,260.5" /><path
         id="path66"
         style="fill:#29224e;fill-opacity:1;fill-rule:nonzero;stroke:none"
         d="m 652.422,745.68 c 63.84,27.695 94.105,69.765 102.859,102.715 -0.558,0.273 -1.14,0.515 -1.707,0.781 C 725.793,791.039 670.313,781.348 575.473,768.637 519.238,761.109 475.504,728.883 449.105,689 c -2.101,-12.176 -3.265,-24.684 -3.265,-37.469 0,-51.82 18.078,-99.39 48.183,-136.769 -2.675,162.789 81.883,197.734 158.399,230.918" /></g></g></svg>