<?xml version="1.0" encoding="UTF-8"?>
<svg width="200px" height="200px" viewBox="0 0 200 200" version="1.1" xmlns="http://www.w3.org/2000/svg" xmlns:xlink="http://www.w3.org/1999/xlink">
    <title>Artboard</title>
    <g id="Artboard" stroke="none" stroke-width="1" fill="none" fill-rule="evenodd">
        <rect fill="#FFFFFF" x="0" y="0" width="200" height="200"></rect>
        <rect id="back" fill="#FFFFFF" x="0" y="0" width="200" height="200"></rect>
        <g id="logo" transform="translate(25.000000, 50.000000)" fill="#29224E" fill-rule="nonzero">
            <g id="g12" transform="translate(75.000000, 49.671756) scale(-1, 1) rotate(-180.000000) translate(-75.000000, -49.671756) translate(0.000000, 0.299896)">
                <path d="M4.36395652,18.7197025 L3.66547826,21.0915266 L3.63234783,21.0915266 L2.90008696,18.7197025 L4.36395652,18.7197025 Z M2.61221739,23.2957497 C2.63413043,23.3636854 2.67847826,23.4079226 2.75647826,23.4079226 L4.56313043,23.4079226 C4.64113043,23.4079226 4.68547826,23.3636854 4.7073913,23.2957497 L7.25752174,15.9111678 C7.27995652,15.8442854 7.24578261,15.798995 7.17952174,15.798995 L5.35043478,15.798995 C5.27295652,15.798995 5.22808696,15.8442854 5.20669565,15.9111678 L4.85152174,17.0856915 L2.40182609,17.0856915 L2.04665217,15.9111678 C2.02473913,15.8442854 1.98,15.798995 1.90304348,15.798995 L0.0845217391,15.798995 C0.0178695652,15.798995 -0.0152869565,15.8442854 0.00717391304,15.9111678 L2.61221739,23.2957497" id="path14"></path>
                <path d="M14.0543478,18.7197025 L13.3558696,21.0915266 L13.3227391,21.0915266 L12.5904783,18.7197025 L14.0543478,18.7197025 Z M12.3026087,23.2957497 C12.3245217,23.3636854 12.3688696,23.4079226 12.4468696,23.4079226 L14.2535217,23.4079226 C14.331,23.4079226 14.3753478,23.3636854 14.3977826,23.2957497 L16.947913,15.9111678 C16.9698261,15.8442854 16.9361739,15.798995 16.869913,15.798995 L15.0408261,15.798995 C14.9633478,15.798995 14.9184783,15.8442854 14.897087,15.9111678 L14.541913,17.0856915 L12.0916957,17.0856915 L11.7370435,15.9111678 C11.7147391,15.8442854 11.6703913,15.798995 11.5934348,15.798995 L9.77491304,15.798995 C9.70826087,15.798995 9.67513043,15.8442854 9.69756522,15.9111678 L12.3026087,23.2957497" id="path16"></path>
                <path d="M19.8856957,23.2957497 C19.8856957,23.3636854 19.9300435,23.4079226 19.9963043,23.4079226 L21.726,23.4079226 C21.7922609,23.4079226 21.8371304,23.3636854 21.8371304,23.2957497 L21.8371304,17.6119296 C21.8371304,17.5671658 21.8595652,17.5445206 21.9033913,17.5445206 L25.095913,17.5445206 C25.1626957,17.5445206 25.2070435,17.5002834 25.2070435,17.4323477 L25.2070435,15.9111678 C25.2070435,15.8442854 25.1626957,15.798995 25.095913,15.798995 L19.9963043,15.798995 C19.9300435,15.798995 19.8856957,15.8442854 19.8856957,15.9111678 L19.8856957,23.2957497" id="path18"></path>
                <path d="M30.2624348,17.287392 L31.1495217,17.287392 C31.7587826,17.287392 32.069087,17.5892844 32.069087,18.1488322 C32.069087,18.6744121 31.7587826,18.9994764 31.1495217,18.9994764 L30.2624348,18.9994764 C30.2186087,18.9994764 30.1961739,18.9768312 30.1961739,18.932594 L30.1961739,17.3542744 C30.1961739,17.3100372 30.2186087,17.287392 30.2624348,17.287392 Z M31.0496087,20.3530553 C31.6376087,20.3530553 31.947913,20.6107106 31.947913,21.1368171 C31.947913,21.673193 31.6483043,21.9195256 31.0496087,21.9195256 L30.2624348,21.9195256 C30.2186087,21.9195256 30.1961739,21.8968804 30.1961739,21.8526432 L30.1961739,20.4204643 C30.1961739,20.3757005 30.2186087,20.3530553 30.2624348,20.3530553 L31.0496087,20.3530553 Z M28.2447391,23.2957497 C28.2447391,23.3636854 28.2896087,23.4079226 28.3558696,23.4079226 L31.4266957,23.4079226 C33.1115217,23.4079226 33.8876087,22.5917729 33.8876087,21.3826231 C33.8876087,20.5993879 33.5329565,20.0511628 32.9673913,19.7487437 L32.9673913,19.7271518 C33.5222609,19.5142603 34.0205217,18.8765075 34.0205217,17.9924221 C34.0205217,16.5040251 32.9786087,15.798995 31.3935652,15.798995 L28.3558696,15.798995 C28.2896087,15.798995 28.2447391,15.8442854 28.2447391,15.9111678 L28.2447391,23.2957497" id="path20"></path>
                <path d="M41.1053478,18.0927457 C41.193913,18.350401 41.2163478,18.6970573 41.2163478,19.6036563 C41.2163478,20.5098603 41.193913,20.8570432 41.1053478,21.1141719 C40.9723043,21.5390332 40.6283478,21.7853658 40.1413043,21.7853658 C39.6532174,21.7853658 39.3092609,21.5390332 39.1763478,21.1141719 C39.0876522,20.8570432 39.0657391,20.5098603 39.0657391,19.6036563 C39.0657391,18.6970573 39.0876522,18.350401 39.1763478,18.0927457 C39.3092609,17.6678844 39.6532174,17.4215518 40.1413043,17.4215518 C40.6283478,17.4215518 40.9723043,17.6678844 41.1053478,18.0927457 L41.1053478,18.0927457 Z M37.314,17.5337246 C37.1362174,18.115391 37.0923913,18.5627658 37.0923913,19.6036563 C37.0923913,20.6441518 37.1362174,21.0915266 37.314,21.673193 C37.7135217,22.9157839 38.811,23.5422141 40.1413043,23.5422141 C41.471087,23.5422141 42.569087,22.9157839 42.9675652,21.673193 C43.1560435,21.0915266 43.1891739,20.6441518 43.1891739,19.6036563 C43.1891739,18.5627658 43.1560435,18.115391 42.9675652,17.5337246 C42.569087,16.2911337 41.471087,15.6647035 40.1413043,15.6647035 C38.811,15.6647035 37.7135217,16.2911337 37.314,17.5337246" id="path22"></path>
                <path d="M50.3962174,20.9347216 C50.3962174,21.4273869 50.064,21.7411286 49.5091304,21.7411286 L48.4672174,21.7411286 C48.4233913,21.7411286 48.4009565,21.7184834 48.4009565,21.673193 L48.4009565,20.1966452 C48.4009565,20.1520131 48.4233913,20.1293678 48.4672174,20.1293678 L49.5091304,20.1293678 C50.064,20.1293678 50.3962174,20.4429779 50.3962174,20.9347216 Z M50.4966522,15.798995 C50.3962174,15.798995 50.363087,15.8324362 50.3299565,15.9111678 L49.1881304,18.5066794 L48.4672174,18.5066794 C48.4233913,18.5066794 48.4009565,18.4841658 48.4009565,18.4399286 L48.4009565,15.9111678 C48.4009565,15.8442854 48.356087,15.798995 48.2904783,15.798995 L46.5606522,15.798995 C46.4938696,15.798995 46.4495217,15.8442854 46.4495217,15.9111678 L46.4495217,23.2957497 C46.4495217,23.3636854 46.4938696,23.4079226 46.5606522,23.4079226 L49.6314783,23.4079226 C51.3607826,23.4079226 52.3471304,22.3896774 52.3471304,20.9573668 C52.3471304,20.006399 51.903913,19.2344864 51.1060435,18.8312171 L52.491913,15.9332864 C52.524913,15.8658774 52.491913,15.798995 52.413913,15.798995 L50.4966522,15.798995" id="path24"></path>
                <path d="M55.4083043,19.6036563 C55.4083043,20.6441518 55.4521304,21.0915266 55.6293913,21.673193 C56.028913,22.9157839 57.1263913,23.5422141 58.467913,23.5422141 C59.8537826,23.5422141 60.7846957,22.8936653 61.2054783,21.9195256 C61.2396522,21.8414523 61.2172174,21.7745698 61.149913,21.7411286 L59.7091304,21.1249678 C59.6428696,21.0915266 59.5766087,21.1141719 59.5424348,21.1702583 C59.2882174,21.584192 58.9886087,21.7853658 58.467913,21.7853658 C57.9573913,21.7853658 57.6251739,21.5390332 57.4917391,21.1141719 C57.4035652,20.845194 57.3811304,20.5098603 57.3811304,19.6036563 C57.3811304,18.6970573 57.4142609,18.350401 57.4917391,18.0927457 C57.6363913,17.6678844 57.9798261,17.4215518 58.5229565,17.4215518 C59.0110435,17.4215518 59.3988261,17.6344432 59.5210435,18.0258633 C59.5648696,18.1601548 59.5873043,18.3164332 59.5873043,18.518002 C59.5873043,18.5627658 59.5648696,18.5848844 59.5210435,18.5848844 L58.7002174,18.5848844 C58.6339565,18.5848844 58.5892174,18.6301749 58.5892174,18.6970573 L58.5892174,19.9616352 C58.5892174,20.0290442 58.6339565,20.0732814 58.7002174,20.0732814 L61.394087,20.0732814 C61.4607391,20.0732814 61.505087,20.0290442 61.505087,19.9616352 L61.505087,19.3794422 C61.505087,18.6528201 61.4607391,18.0819497 61.305913,17.6119296 C60.9063913,16.3472201 59.8420435,15.6647035 58.467913,15.6647035 C57.1263913,15.6647035 56.028913,16.2911337 55.6293913,17.5337246 C55.4521304,18.115391 55.4083043,18.5627658 55.4083043,19.6036563" id="path26"></path>
                <path d="M69.5997391,18.7422161 L69.5997391,23.2957497 C69.5997391,23.3636854 69.644087,23.4079226 69.7107391,23.4079226 L71.4395217,23.4079226 C71.5063043,23.4079226 71.5506522,23.3636854 71.5506522,23.2957497 L71.5506522,18.6188523 C71.5506522,17.8582623 71.9714348,17.4215518 72.6043043,17.4215518 C73.2580435,17.4215518 73.6456957,17.8582623 73.6456957,18.6188523 L73.6456957,23.2957497 C73.6456957,23.3636854 73.6900435,23.4079226 73.7568261,23.4079226 L75.4861304,23.4079226 C75.5527826,23.4079226 75.5966087,23.3636854 75.5966087,23.2957497 L75.5966087,18.7422161 C75.5966087,16.7165216 74.3993478,15.6647035 72.6043043,15.6647035 C70.7745652,15.6647035 69.5997391,16.7165216 69.5997391,18.7422161" id="path28"></path>
                <path d="M79.011913,23.2957497 C79.011913,23.3636854 79.0562609,23.4079226 79.1223913,23.4079226 L80.7524348,23.4079226 C80.8297826,23.4079226 80.9077826,23.3744814 80.940913,23.2957497 L83.2133478,18.9881538 L83.2582174,18.9881538 L83.2582174,23.2957497 C83.2582174,23.3636854 83.3024348,23.4079226 83.3686957,23.4079226 L84.9207391,23.4079226 C84.9868696,23.4079226 85.0317391,23.3636854 85.0317391,23.2957497 L85.0317391,15.9111678 C85.0317391,15.8442854 84.9868696,15.798995 84.9207391,15.798995 L83.2908261,15.798995 C83.2133478,15.798995 83.1353478,15.8324362 83.1022174,15.9111678 L80.8522174,20.2074412 L80.7854348,20.2074412 L80.7854348,15.9111678 C80.7854348,15.8442854 80.7417391,15.798995 80.6749565,15.798995 L79.1223913,15.798995 C79.0562609,15.798995 79.011913,15.8442854 79.011913,15.9111678 L79.011913,23.2957497" id="path30"></path>
                <path d="M88.4689565,23.2957497 C88.4689565,23.3636854 88.5136957,23.4079226 88.5794348,23.4079226 L90.3092609,23.4079226 C90.3760435,23.4079226 90.4203913,23.3636854 90.4203913,23.2957497 L90.4203913,15.9111678 C90.4203913,15.8442854 90.3760435,15.798995 90.3092609,15.798995 L88.5794348,15.798995 C88.5136957,15.798995 88.4689565,15.8442854 88.4689565,15.9111678 L88.4689565,23.2957497" id="path32"></path>
                <path d="M95.897087,15.798995 C95.819087,15.798995 95.7752609,15.8324362 95.7528261,15.9111678 L93.3474783,23.2849538 C93.3250435,23.3518362 93.3688696,23.4079226 93.4468696,23.4079226 L95.2652609,23.4079226 C95.3427391,23.4079226 95.387087,23.3744814 95.409,23.2957497 L96.7505217,18.7089065 L96.7841739,18.7089065 L98.0808261,23.2957497 C98.1032609,23.3744814 98.1476087,23.4079226 98.225087,23.4079226 L100.032261,23.4079226 C100.109217,23.4079226 100.143391,23.3518362 100.120957,23.2849538 L97.7149565,15.9111678 C97.6930435,15.8324362 97.6483043,15.798995 97.5708261,15.798995 L95.897087,15.798995" id="path34"></path>
                <path d="M103.048043,23.2957497 C103.048043,23.3636854 103.092391,23.4079226 103.158652,23.4079226 L108.092217,23.4079226 C108.159,23.4079226 108.202826,23.3636854 108.202826,23.2957497 L108.202826,21.8526432 C108.202826,21.7853658 108.159,21.7411286 108.092217,21.7411286 L105.065739,21.7411286 C105.021913,21.7411286 104.999478,21.7184834 104.999478,21.673193 L104.999478,20.5206563 C104.999478,20.4764191 105.021913,20.4537739 105.065739,20.4537739 L107.549087,20.4537739 C107.61587,20.4537739 107.659696,20.4091417 107.659696,20.3422593 L107.659696,18.932594 C107.659696,18.8646583 107.61587,18.8204211 107.549087,18.8204211 L105.065739,18.8204211 C105.021913,18.8204211 104.999478,18.7977759 104.999478,18.7531437 L104.999478,17.5337246 C104.999478,17.4884342 105.021913,17.4668422 105.065739,17.4668422 L108.092217,17.4668422 C108.159,17.4668422 108.202826,17.4215518 108.202826,17.3542744 L108.202826,15.9111678 C108.202826,15.8442854 108.159,15.798995 108.092217,15.798995 L103.158652,15.798995 C103.092391,15.798995 103.048043,15.8442854 103.048043,15.9111678 L103.048043,23.2957497" id="path36"></path>
                <path d="M115.387957,20.9347216 C115.387957,21.4273869 115.055217,21.7411286 114.500348,21.7411286 L113.458435,21.7411286 C113.414609,21.7411286 113.392174,21.7184834 113.392174,21.673193 L113.392174,20.1966452 C113.392174,20.1520131 113.414609,20.1293678 113.458435,20.1293678 L114.500348,20.1293678 C115.055217,20.1293678 115.387957,20.4429779 115.387957,20.9347216 Z M115.487739,15.798995 C115.387957,15.798995 115.354826,15.8324362 115.321696,15.9111678 L114.179348,18.5066794 L113.458435,18.5066794 C113.414609,18.5066794 113.392174,18.4841658 113.392174,18.4399286 L113.392174,15.9111678 C113.392174,15.8442854 113.347826,15.798995 113.281565,15.798995 L111.551739,15.798995 C111.485609,15.798995 111.440739,15.8442854 111.440739,15.9111678 L111.440739,23.2957497 C111.440739,23.3636854 111.485609,23.4079226 111.551739,23.4079226 L114.622565,23.4079226 C116.35187,23.4079226 117.338348,22.3896774 117.338348,20.9573668 C117.338348,20.006399 116.895,19.2344864 116.09713,18.8312171 L117.482609,15.9332864 C117.516522,15.8658774 117.482609,15.798995 117.405652,15.798995 L115.487739,15.798995" id="path38"></path>
                <path d="M120.310435,16.7504894 C120.255652,16.7947266 120.243913,16.8733266 120.298696,16.9294131 L121.297826,18.115391 C121.34087,18.1714774 121.408696,18.1714774 121.451739,18.1267136 C121.906957,17.7234442 122.616522,17.3654653 123.370435,17.3654653 C124.068261,17.3654653 124.434783,17.6560352 124.434783,18.0819497 C124.434783,18.4064874 124.223478,18.6188523 123.481304,18.7197025 L123.082174,18.7751307 C121.451739,19.010799 120.566087,19.7487437 120.566087,21.1702583 C120.566087,22.5917729 121.663043,23.5422141 123.370435,23.5422141 C124.412609,23.5422141 125.388261,23.2176764 126.063913,22.7032874 C126.118696,22.6586553 126.130435,22.6025688 126.086087,22.5356864 L125.255217,21.3152141 C125.21087,21.2597859 125.154783,21.2484633 125.1,21.2819045 C124.567826,21.6397518 124.001739,21.8526432 123.403043,21.8526432 C122.85,21.8526432 122.572174,21.584192 122.572174,21.2150221 C122.572174,20.8791618 122.816087,20.666797 123.536087,20.5767427 L123.935217,20.5206563 C125.587826,20.2861729 126.430435,19.5477015 126.430435,18.104595 C126.430435,16.694403 125.366087,15.6647035 123.348261,15.6647035 C122.118261,15.6647035 120.875217,16.1904151 120.310435,16.7504894" id="path40"></path>
                <path d="M129.556957,23.2957497 C129.556957,23.3636854 129.601304,23.4079226 129.667826,23.4079226 L131.397391,23.4079226 C131.463913,23.4079226 131.508261,23.3636854 131.508261,23.2957497 L131.508261,15.9111678 C131.508261,15.8442854 131.463913,15.798995 131.397391,15.798995 L129.667826,15.798995 C129.601304,15.798995 129.556957,15.8442854 129.556957,15.9111678 L129.556957,23.2957497" id="path42"></path>
                <path d="M136.608261,15.798995 L136.575652,15.798995 C136.552174,15.798995 136.541739,15.809791 136.519565,15.8324362 C136.50913,15.8442854 136.497391,15.8550814 136.497391,15.8777266 L136.497391,15.9111678 L136.497391,21.5949879 C136.497391,21.6289558 136.475217,21.6510744 136.441304,21.662397 L136.43087,21.662397 L134.58,21.662397 L134.546087,21.662397 C134.523913,21.662397 134.512174,21.673193 134.501739,21.6850422 L134.491304,21.6958382 C134.491304,21.6958382 134.491304,21.7076874 134.479565,21.7076874 C134.46913,21.7292794 134.46913,21.7519246 134.46913,21.7745698 L134.46913,23.2957497 C134.46913,23.3518362 134.501739,23.3971266 134.546087,23.4079226 L134.58,23.4079226 L140.366087,23.4079226 C140.4,23.4079226 140.422174,23.3971266 140.444348,23.3744814 C140.444348,23.3744814 140.454783,23.3636854 140.454783,23.3518362 C140.466522,23.3410402 140.476957,23.318395 140.476957,23.2957497 L140.476957,21.7745698 C140.476957,21.7411286 140.466522,21.7076874 140.444348,21.6850422 C140.432609,21.673193 140.410435,21.662397 140.388261,21.662397 L140.366087,21.662397 L138.515217,21.662397 C138.493043,21.662397 138.481304,21.662397 138.47087,21.6510744 C138.45913,21.6510744 138.45913,21.6397518 138.448696,21.6289558 L138.448696,21.5949879 L138.448696,15.9111678 L138.448696,15.8777266 C138.436957,15.8442854 138.426522,15.8324362 138.393913,15.809791 C138.382174,15.798995 138.36,15.798995 138.337826,15.798995 L136.608261,15.798995" id="path44"></path>
                <path d="M145.300435,15.798995 C145.233913,15.798995 145.189565,15.8442854 145.189565,15.9111678 L145.189565,18.7422161 L142.905652,23.2849538 C142.883478,23.3518362 142.916087,23.4079226 142.994348,23.4079226 L144.734348,23.4079226 C144.812609,23.4079226 144.867391,23.3744814 144.911739,23.2957497 L146.175652,20.7002382 L146.209565,20.7002382 L147.45,23.2957497 C147.483913,23.3744814 147.550435,23.4079226 147.628696,23.4079226 L149.334783,23.4079226 C149.424783,23.4079226 149.446957,23.3518362 149.424783,23.2849538 L147.14087,18.7422161 L147.14087,15.9111678 C147.14087,15.8442854 147.095217,15.798995 147.03,15.798995 L145.300435,15.798995" id="path46"></path>
                <path d="M45.2913913,0.604311558 L46.9768696,0.604311558 C47.9521304,0.604311558 48.5951739,0.951494472 48.8615217,1.75684824 C48.9828261,2.12601809 49.0383913,2.51743819 49.0383913,3.80466131 C49.0383913,5.09148945 48.9828261,5.48290955 48.8615217,5.8520794 C48.5951739,6.6579598 47.9521304,7.00461608 46.9768696,7.00461608 L45.2913913,7.00461608 C45.2471739,7.00461608 45.2247391,6.98197085 45.2247391,6.93773367 L45.2247391,0.67119397 C45.2247391,0.626956784 45.2471739,0.604311558 45.2913913,0.604311558 L45.2913913,0.604311558 Z M44.592913,7.49675477 C44.592913,7.56469045 44.6377826,7.60892764 44.703913,7.60892764 L47.0655652,7.60892764 C48.318,7.60892764 49.1386957,7.10546633 49.470913,6.06497085 C49.6151739,5.61759598 49.6819565,5.1923397 49.6819565,3.80466131 C49.6819565,2.41711457 49.6151739,1.99185829 49.470913,1.54435176 C49.1386957,0.503461307 48.318,0 47.0655652,0 L44.703913,0 C44.6377826,0 44.592913,0.0452904523 44.592913,0.112172864 L44.592913,7.49675477" id="path48"></path>
                <path d="M53.684087,7.49675477 C53.684087,7.56469045 53.7284348,7.60892764 53.7946957,7.60892764 L58.1071304,7.60892764 C58.173913,7.60892764 58.2182609,7.56469045 58.2182609,7.49675477 L58.2182609,7.11678894 C58.2182609,7.04990653 58.173913,7.00461608 58.1071304,7.00461608 L54.3826957,7.00461608 C54.3383478,7.00461608 54.315913,6.98197085 54.315913,6.93773367 L54.315913,4.23004925 C54.315913,4.18475879 54.3383478,4.1626402 54.3826957,4.1626402 L57.585913,4.1626402 C57.6532174,4.1626402 57.6970435,4.11734975 57.6970435,4.05059899 L57.6970435,3.66997487 C57.6970435,3.60309246 57.6532174,3.55832864 57.585913,3.55832864 L54.3826957,3.55832864 C54.3383478,3.55832864 54.315913,3.53568342 54.315913,3.49157789 L54.315913,0.67119397 C54.315913,0.626956784 54.3383478,0.604311558 54.3826957,0.604311558 L58.1071304,0.604311558 C58.173913,0.604311558 58.2182609,0.559021106 58.2182609,0.492138693 L58.2182609,0.112172864 C58.2182609,0.0452904523 58.173913,0 58.1071304,0 L53.7946957,0 C53.7284348,0 53.684087,0.0452904523 53.684087,0.112172864 L53.684087,7.49675477" id="path50"></path>
                <path d="M62.066087,7.49675477 C62.066087,7.56469045 62.1109565,7.60892764 62.1766957,7.60892764 L62.5873043,7.60892764 C62.6647826,7.60892764 62.7314348,7.58628241 62.7752609,7.49675477 L66.534,1.24206432 L66.5671304,1.24206432 L66.5671304,7.49675477 C66.5671304,7.56469045 66.6114783,7.60892764 66.6776087,7.60892764 L67.0878261,7.60892764 C67.155,7.60892764 67.1988261,7.56469045 67.1988261,7.49675477 L67.1988261,0.112172864 C67.1988261,0.0452904523 67.155,-1.87097685e-15 67.0878261,-1.87097685e-15 L66.6551739,-1.87097685e-15 C66.5895652,-1.87097685e-15 66.5222609,0.0226452261 66.4666957,0.112172864 L62.7421304,6.37818593 L62.697913,6.37818593 L62.697913,0.112172864 C62.697913,0.0452904523 62.654087,-1.87097685e-15 62.5873043,-1.87097685e-15 L62.1766957,-1.87097685e-15 C62.1109565,-1.87097685e-15 62.066087,0.0452904523 62.066087,0.112172864 L62.066087,7.49675477" id="path52"></path>
                <path d="M71.5012174,7.49675477 C71.5012174,7.56469045 71.5455652,7.60892764 71.6116957,7.60892764 L72.0336522,7.60892764 C72.1111304,7.60892764 72.1665652,7.57548643 72.1996957,7.49675477 L74.6495217,2.04741809 L74.6937391,2.04741809 L77.0885217,7.49675477 C77.1216522,7.57548643 77.1766957,7.60892764 77.2438696,7.60892764 L77.6754783,7.60892764 C77.7421304,7.60892764 77.787,7.56469045 77.787,7.49675477 L77.787,0.112172864 C77.787,0.0452904523 77.7421304,0 77.6754783,0 L77.2652609,0 C77.199,0 77.1547826,0.0452904523 77.1547826,0.112172864 L77.1547826,6.06497085 L77.1216522,6.06497085 L74.949,1.24206432 C74.9047826,1.15253668 74.859913,1.11909548 74.7487826,1.11909548 L74.5276957,1.11909548 C74.4272609,1.11909548 74.3834348,1.15253668 74.3392174,1.24206432 L72.1665652,6.06497085 L72.1330435,6.06497085 L72.1330435,0.112172864 C72.1330435,0.0452904523 72.0886957,0 72.021913,0 L71.6116957,0 C71.5455652,0 71.5012174,0.0452904523 71.5012174,0.112172864 L71.5012174,7.49675477" id="path54"></path>
                <path d="M85.7797826,2.59616985 L84.3723913,6.57988643 L84.3393913,6.57988643 L82.9203913,2.59616985 L85.7797826,2.59616985 Z M84.0285652,7.49675477 C84.051,7.56469045 84.0952174,7.60892764 84.1614783,7.60892764 L84.561,7.60892764 C84.6384783,7.60892764 84.6714783,7.56469045 84.693913,7.49675477 L87.3103043,0.112172864 C87.3322174,0.0452904523 87.299087,0 87.2328261,0 L86.8003043,0 C86.7223043,0 86.6779565,0.0226452261 86.6560435,0.112172864 L85.9906957,1.98053568 L82.7093478,1.98053568 L82.0445217,0.112172864 C82.0108696,0.0226452261 81.9670435,0 81.8997391,0 L81.4677391,0 C81.4014783,0 81.3683478,0.0452904523 81.3902609,0.112172864 L84.0285652,7.49675477" id="path56"></path>
                <path d="M95.2153043,5.50542312 C95.2153043,6.45639095 94.6167391,7.00461608 93.5410435,7.00461608 L91.6125652,7.00461608 C91.5678261,7.00461608 91.545913,6.98197085 91.545913,6.93773367 L91.545913,4.07324422 C91.545913,4.0284804 91.5678261,4.00583518 91.6125652,4.00583518 L93.5410435,4.00583518 C94.6167391,4.00583518 95.2153043,4.54326432 95.2153043,5.50542312 L95.2153043,5.50542312 Z M95.382,0 C95.3146957,0 95.2815652,0.0226452261 95.2484348,0.100850251 L93.6633913,3.40152362 L93.5522609,3.40152362 L91.6125652,3.40152362 C91.5678261,3.40152362 91.545913,3.37940503 91.545913,3.33464121 L91.545913,0.112172864 C91.545913,0.0452904523 91.502087,0 91.4347826,0 L91.0245652,0 C90.9584348,0 90.914087,0.0452904523 90.914087,0.112172864 L90.914087,7.49675477 C90.914087,7.56469045 90.9584348,7.60892764 91.0245652,7.60892764 L93.5522609,7.60892764 C94.9712609,7.60892764 95.8471304,6.80357387 95.8471304,5.50542312 C95.8471304,4.45373668 95.2708696,3.72606131 94.305913,3.49157789 L95.9475652,0.122968844 C95.9913913,0.0560864322 95.9582609,0 95.892,0 L95.382,0" id="path58"></path>
                <path d="M99.9491739,7.49675477 C99.9491739,7.56469045 99.9940435,7.60892764 100.060304,7.60892764 L100.470391,7.60892764 C100.537174,7.60892764 100.581,7.56469045 100.581,7.49675477 L100.581,3.11095377 L104.173043,7.50860402 C104.239826,7.57548643 104.284174,7.60892764 104.361522,7.60892764 L104.88287,7.60892764 C104.949,7.60892764 104.982652,7.54204523 104.927087,7.48595879 L102.543652,4.61014673 L105.115174,0.122968844 C105.160043,0.0560864322 105.126913,3.7419537e-15 105.06013,3.7419537e-15 L104.561348,3.7419537e-15 C104.483348,3.7419537e-15 104.439522,0.033441206 104.394652,0.100850251 L102.122348,4.09575779 L100.581,2.23766432 L100.581,0.112172864 C100.581,0.0452904523 100.537174,3.7419537e-15 100.470391,3.7419537e-15 L100.060304,3.7419537e-15 C99.9940435,3.7419537e-15 99.9491739,0.0452904523 99.9491739,0.112172864 L99.9491739,7.49675477" id="path60"></path>
                <path d="M96.4647391,56.046803 C95.0666087,56.6778412 93.609913,57.205001 91.2345652,58.6635116 C84.5625652,62.7696704 82.5331304,68.8815116 86.2846957,79.5432 C88.4561739,85.7162623 89.4986087,90.9218995 88.9621304,96.5379156 C88.8867391,96.589394 88.8097826,96.6371859 88.7338696,96.6865578 C88.3848261,89.6330965 85.8087391,85.2482171 81.1930435,77.8249276 C71.4151304,62.0979497 81.3418696,50.5727146 86.0583913,46.9881859 C90.2186087,49.1039347 93.7897826,52.2287126 96.4647391,56.046803" id="path62"></path>
                <path d="M76.6635652,78.400406 C84.2017826,87.3568563 86.6525217,91.4865819 87.162,97.6483216 C87.0804783,97.6934804 87.002087,97.7439055 86.921087,97.789196 C85.1749565,90.4152784 80.7946957,86.507792 69.2522609,78.7475889 C56.8180435,70.3908422 57.3776087,56.0246844 60.5426087,47.0827166 C64.3995652,45.085197 68.7636522,43.9512241 73.3925217,43.9512241 C74.3793913,43.9512241 75.3541304,44.0032291 76.3150435,44.1034211 C67.3385217,57.8509166 67.961087,68.0606221 76.6635652,78.400406" id="path64"></path>
                <path d="M72.0550435,85.0091256 C80.382,88.655402 84.3296087,94.1942663 85.4714348,98.532407 C85.3986522,98.5683497 85.3227391,98.6002111 85.2487826,98.6352322 C81.6251739,90.9810141 74.3886522,89.7051136 62.0182174,88.031605 C54.6832174,87.0404814 48.9787826,82.7976613 45.5354348,77.5467337 C45.2613913,75.9436623 45.1095652,74.2968804 45.1095652,72.6136291 C45.1095652,65.7910965 47.4675652,59.5281116 51.3943043,54.6068563 C51.0453913,76.0393779 62.0746957,80.6401769 72.0550435,85.0091256" id="path66"></path>
            </g>
        </g>
    </g>
</svg>