<?xml version="1.0" encoding="UTF-8"?>
<svg width="413px" height="182px" viewBox="0 0 413 182" version="1.1" xmlns="http://www.w3.org/2000/svg" xmlns:xlink="http://www.w3.org/1999/xlink">
    <!-- Generator: Sketch 63.1 (92452) - https://sketch.com -->
    <title>Artboard</title>
    <desc>Created with Sketch.</desc>
    <defs>
        <linearGradient x1="-6.30631769%" y1="14.9726257%" x2="73.5796029%" y2="100.127%" id="linearGradient-1">
            <stop stop-color="#233F95" offset="0%"></stop>
            <stop stop-color="#204498" offset="10.82%"></stop>
            <stop stop-color="#1752A1" offset="29.05%"></stop>
            <stop stop-color="#0066AF" offset="51.2%"></stop>
            <stop stop-color="#0089CC" offset="76.82%"></stop>
            <stop stop-color="#00A0DF" offset="91.83%"></stop>
        </linearGradient>
        <linearGradient x1="0.0870875179%" y1="49.9094444%" x2="99.8949785%" y2="49.9094444%" id="linearGradient-2">
            <stop stop-color="#00A0DF" offset="8.173006%"></stop>
            <stop stop-color="#0089CC" offset="23.18%"></stop>
            <stop stop-color="#0066AF" offset="48.8%"></stop>
            <stop stop-color="#1752A1" offset="70.95%"></stop>
            <stop stop-color="#204498" offset="89.18%"></stop>
            <stop stop-color="#233F95" offset="100%"></stop>
        </linearGradient>
        <linearGradient x1="-96.0129771%" y1="-106.555982%" x2="72.9061069%" y2="74.6803362%" id="linearGradient-3">
            <stop stop-color="#233F95" offset="0%"></stop>
            <stop stop-color="#00A0DF" offset="100%"></stop>
        </linearGradient>
    </defs>
    <g id="Artboard" stroke="none" stroke-width="1" fill="none" fill-rule="evenodd">
        <g id="Group" transform="translate(0.000000, 64.000000)" fill="#FFFFFF" fill-rule="nonzero">
            <path d="M0.9,51.3 L5.9,43.6 C10.3,46.8 15,48.5 18.8,48.5 C22.2,48.5 23.7,47.3 23.7,45.4 L23.7,45.2 C23.7,42.7 19.7,41.8 15.2,40.4 C9.5,38.7 2.9,36 2.9,28.1 L2.9,27.9 C2.9,19.5 9.6,14.9 17.9,14.9 C23.1,14.9 28.8,16.7 33.2,19.7 L28.8,27.7 C24.7,25.3 20.7,23.9 17.7,23.9 C14.9,23.9 13.4,25.1 13.4,26.7 L13.4,26.9 C13.4,29.2 17.3,30.3 21.8,31.8 C27.5,33.7 34.2,36.5 34.2,44 L34.2,44.2 C34.2,53.3 27.4,57.5 18.5,57.5 C12.8,57.5 6.3,55.6 0.9,51.3 Z" id="Path"></path>
            <path d="M36.2,36.4 L36.2,36.2 C36.2,24.5 45.2,14.8 57.7,14.8 C65.4,14.8 70.3,17.4 74.1,21.7 L67,29.4 C64.4,26.6 61.8,24.9 57.7,24.9 C51.9,24.9 47.7,30 47.7,36.1 L47.7,36.3 C47.7,42.6 51.8,47.6 58.1,47.6 C62,47.6 64.7,45.9 67.5,43.2 L74.3,50.1 C70.3,54.5 65.7,57.6 57.5,57.6 C45.3,57.7 36.2,48.2 36.2,36.4 Z" id="Path"></path>
            <polygon id="Path" points="77.8 15.7 89.4 15.7 89.4 56.8 77.8 56.8"></polygon>
            <polygon id="Path" points="97.8 3.1 110.5 3.1 124.6 25.8 138.7 3.1 151.4 3.1 151.4 56.7 139.7 56.7 139.7 21.7 124.6 44.6 124.3 44.6 109.4 22 109.4 56.8 97.8 56.8"></polygon>
            <path d="M155.2,36.4 L155.2,36.2 C155.2,24.5 163.6,14.8 175.5,14.8 C189.2,14.8 195.5,25.4 195.5,37.1 C195.5,38 195.4,39.1 195.3,40.2 L166.7,40.2 C167.8,45.5 171.5,48.2 176.7,48.2 C180.6,48.2 183.4,47 186.7,44 L193.4,49.9 C189.6,54.7 184.1,57.6 176.6,57.6 C164.4,57.7 155.2,49 155.2,36.4 Z M184.2,33 C183.5,27.8 180.4,24.3 175.5,24.3 C170.7,24.3 167.5,27.7 166.6,33 L184.2,33 Z" id="Shape"></path>
            <path d="M198.2,36.4 L198.2,36.2 C198.2,24.5 206.6,14.8 218.5,14.8 C232.2,14.8 238.5,25.4 238.5,37.1 C238.5,38 238.4,39.1 238.3,40.2 L209.7,40.2 C210.8,45.5 214.5,48.2 219.7,48.2 C223.6,48.2 226.4,47 229.7,44 L236.4,49.9 C232.6,54.7 227.1,57.6 219.6,57.6 C207.3,57.7 198.2,49 198.2,36.4 Z M227.1,33 C226.4,27.8 223.3,24.3 218.4,24.3 C213.6,24.3 210.4,27.7 209.5,33 L227.1,33 Z" id="Shape"></path>
            <path d="M244.7,45.1 L244.7,25.6 L239.8,25.6 L239.8,15.6 L244.7,15.6 L244.7,5.1 L256.3,5.1 L256.3,15.6 L266,15.6 L266,25.6 L256.3,25.6 L256.3,43.1 C256.3,45.8 257.4,47.1 260.1,47.1 C262.2,47.1 264.2,46.6 265.8,45.6 L265.8,54.9 C263.3,56.4 260.5,57.3 256.6,57.3 C249.5,57.4 244.7,54.6 244.7,45.1 Z" id="Path"></path>
            <path d="M271.2,0.8 L283.5,0.8 L283.5,11.1 L271.2,11.1 L271.2,0.8 Z M271.5,15.7 L283.1,15.7 L283.1,56.8 L271.5,56.8 L271.5,15.7 Z" id="Shape"></path>
            <path d="M290.2,15.7 L301.8,15.7 L301.8,21.5 C304.5,18.1 307.9,14.9 313.8,14.9 C322.6,14.9 327.7,20.7 327.7,30.1 L327.7,56.7 L316.1,56.7 L316.1,33.8 C316.1,28.3 313.5,25.4 309.1,25.4 C304.7,25.4 301.8,28.2 301.8,33.8 L301.8,56.7 L290.2,56.7 L290.2,15.7 L290.2,15.7 Z" id="Path"></path>
            <path d="M334.3,64.9 L338.3,56.2 C342.5,58.6 346.7,60 352.2,60 C360.2,60 363.9,56.2 363.9,48.8 L363.9,46.8 C360.5,50.9 356.7,53.5 350.5,53.5 C340.9,53.5 332.3,46.5 332.3,34.3 L332.3,34.1 C332.3,21.8 341.1,14.9 350.5,14.9 C356.9,14.9 360.6,17.6 363.8,21 L363.8,15.6 L375.4,15.6 L375.4,47.4 C375.4,54.8 373.6,60.1 370.2,63.6 C366.4,67.4 360.5,69.1 352.5,69.1 C345.8,69.1 339.5,67.6 334.3,64.9 Z M363.9,34.2 L363.9,34 C363.9,28.4 359.5,24.5 353.9,24.5 C348.2,24.5 343.9,28.4 343.9,34 L343.9,34.2 C343.9,39.9 348.2,43.7 353.9,43.7 C359.5,43.7 363.9,39.8 363.9,34.2 Z" id="Shape"></path>
            <path d="M379,51.3 L384,43.6 C388.4,46.8 393.1,48.5 396.9,48.5 C400.3,48.5 401.8,47.3 401.8,45.4 L401.8,45.2 C401.8,42.7 397.8,41.8 393.3,40.4 C387.6,38.7 381,36 381,28.1 L381,27.9 C381,19.5 387.7,14.9 396,14.9 C401.2,14.9 406.9,16.7 411.3,19.7 L406.9,27.7 C402.8,25.3 398.8,23.9 395.8,23.9 C393,23.9 391.5,25.1 391.5,26.7 L391.5,26.9 C391.5,29.2 395.4,30.3 399.9,31.8 C405.6,33.7 412.3,36.5 412.3,44 L412.3,44.2 C412.3,53.3 405.5,57.5 396.6,57.5 C390.9,57.5 384.5,55.6 379,51.3 Z" id="Path"></path>
        </g>
        <path d="M68.7,26.6 L68.9,26.6 C74.7,26.5 77.5,29.3 77.6,35.1 L77.6,40.8 L83.5,40.8 C89.3,40.7 92.1,43.5 92.2,49.3 L92.2,55 L103.8,55 L103.8,43.4 L97.9,43.4 C92.1,43.5 89.3,40.7 89.2,34.9 L89.2,29.2 L83.3,29.2 C77.5,29.3 74.7,26.5 74.6,20.7 L74.6,15 L68.7,15 C62.9,15.1 60.1,12.3 60,6.5 L60,0.8 L48.4,0.8 L48.4,12.4 L54.3,12.4 C60,12.3 62.9,15.1 63,20.8 C62.9,26.5 60.1,29.3 54.3,29.2 L48.4,29.2 L48.4,40.8 L60,40.8 L60,35 C60.1,29.3 63,26.5 68.7,26.6 Z" id="Path" fill="url(#linearGradient-1)" fill-rule="nonzero"></path>
        <path d="M137.4,161.9 C137.5,167.6 140.3,170.4 146.1,170.3 L152,170.3 L152,181.9 L140.4,181.9 L140.4,176.2 C140.3,170.4 137.5,167.7 131.7,167.7 L125.8,167.7 L125.8,162 C125.7,156.2 122.9,153.5 117.1,153.5 L111.2,153.5 L111.2,147.8 C111.1,142 108.3,139.3 102.5,139.3 L102.4,139.3 C96.6,139.3 93.9,141.9 93.9,147.7 L93.9,153.4 L82.3,153.4 L82.3,142 L88.1,142 C93.9,142 96.6,139.4 96.6,133.6 L96.6,127.9 L108.2,127.9 L108.2,133.6 C108.3,139.4 111.1,142.1 116.9,142.1 L122.8,142.1 L122.8,147.8 C122.9,153.6 125.7,156.3 131.5,156.3 L131.7,156.3 C137.5,156.4 140.3,153.6 140.4,147.8 L140.4,142 L152,142 L152,153.6 L146,153.6 C140.3,153.5 137.5,156.2 137.4,161.9 Z" id="Path" fill="url(#linearGradient-2)" fill-rule="nonzero"></path>
        <path d="M77.6,63.4 L77.6,69.1 L89.2,69.1 L89.2,57.5 L83.3,57.5 C77.5,57.6 74.7,54.8 74.6,49 L74.6,43.3 L63,43.3 L63,54.9 L68.9,54.9 C74.7,54.8 77.5,57.6 77.6,63.4 Z" id="Path" fill="url(#linearGradient-3)" fill-rule="nonzero"></path>
        <g id="Group" transform="translate(164.000000, 143.000000)" fill="#FFFFFF" fill-rule="nonzero">
            <path d="M3.02702703,4.77 L1.9027027,4.77 C1.81621622,4.77 1.81621622,4.77 1.81621622,4.86 L1.81621622,8.1 C1.81621622,8.19 1.81621622,8.19 1.72972973,8.19 L0.518918919,8.19 C0.432432432,8.19 0.432432432,8.19 0.432432432,8.1 L0.432432432,0.18 C0.432432432,0.09 0.432432432,0.09 0.518918919,0.09 L3.02702703,0.09 C4.41081081,0.09 5.36216216,1.08 5.36216216,2.52 C5.36216216,3.78 4.4972973,4.77 3.02702703,4.77 Z M3.97837838,2.43 C3.97837838,1.89 3.54594595,1.53 3.11351351,1.53 L1.98918919,1.53 C1.9027027,1.53 1.9027027,1.53 1.9027027,1.62 L1.9027027,3.33 C1.9027027,3.42 1.9027027,3.42 1.98918919,3.42 L3.11351351,3.42 C3.63243243,3.42 3.97837838,2.97 3.97837838,2.52 L3.97837838,2.43 Z" id="Shape"></path>
            <path d="M9.6,8.37 L8.99459459,8.37 C7.61081081,8.37 6.65945946,7.47 6.65945946,6.12 L6.65945946,2.34 C6.65945946,0.99 7.52432432,0.09 8.99459459,0.09 L9.6,0.09 C10.9837838,0.09 11.9351351,0.99 11.9351351,2.34 L11.9351351,6.12 C11.9351351,7.47 10.9837838,8.37 9.6,8.37 Z M10.4648649,2.25 C10.4648649,1.71 10.1189189,1.35 9.6,1.35 L8.99459459,1.35 C8.47567568,1.35 8.12972973,1.8 8.12972973,2.25 L8.12972973,6.03 C8.12972973,6.57 8.56216216,6.93 8.99459459,6.93 L9.6,6.93 C10.1189189,6.93 10.4648649,6.48 10.4648649,6.03 L10.4648649,2.25 Z" id="Shape"></path>
            <path d="M21.0162162,0.54 L19.4594595,8.1 C19.4594595,8.19 19.372973,8.19 19.372973,8.19 L18.5081081,8.19 C18.4216216,8.19 18.4216216,8.19 18.4216216,8.1 L17.3837838,4.23 C17.3837838,4.14 17.2972973,3.6 17.2108108,3.51 L17.2108108,3.51 C17.2108108,3.6 17.1243243,4.14 17.0378378,4.23 L16,8.1 C16,8.19 15.9135135,8.19 15.9135135,8.19 L15.0486486,8.19 C14.9621622,8.19 14.9621622,8.19 14.9621622,8.1 L13.4054054,0.54 C13.4054054,0.36 13.3189189,0.27 13.3189189,0.18 C13.3189189,0.09 13.3189189,0.09 13.4054054,0.09 L14.7027027,0.09 C14.7891892,0.09 14.7891892,0.09 14.7891892,0.18 L15.4810811,4.14 C15.4810811,4.23 15.5675676,4.86 15.5675676,4.95 L15.6540541,4.95 C15.6540541,4.86 15.827027,4.23 15.827027,4.14 L16.8648649,0.09 C16.8648649,0 16.9513514,0 16.9513514,0 L17.5567568,0 C17.6432432,0 17.6432432,0 17.6432432,0.09 L18.6810811,4.14 C18.6810811,4.23 18.8540541,4.86 18.8540541,4.95 L18.9405405,4.95 C18.9405405,4.86 19.027027,4.23 19.027027,4.14 L19.7189189,0.18 C19.7189189,0.09 19.8054054,0.09 19.8054054,0.09 L21.1027027,0.09 C21.1891892,0.09 21.1891892,0.09 21.1891892,0.18 C21.1027027,0.27 21.1027027,0.45 21.0162162,0.54 Z" id="Path"></path>
            <path d="M26.9837838,8.28 L22.572973,8.28 C22.4864865,8.28 22.4864865,8.28 22.4864865,8.19 L22.4864865,0.27 C22.4864865,0.18 22.4864865,0.18 22.572973,0.18 L26.9837838,0.18 C27.0702703,0.18 27.0702703,0.18 27.0702703,0.27 L27.0702703,1.35 C27.0702703,1.44 27.0702703,1.44 26.9837838,1.44 L24.0432432,1.44 C23.9567568,1.44 23.9567568,1.44 23.9567568,1.53 L23.9567568,3.24 C23.9567568,3.33 23.9567568,3.33 24.0432432,3.33 L26.4648649,3.33 C26.5513514,3.33 26.5513514,3.33 26.5513514,3.42 L26.5513514,4.5 C26.5513514,4.59 26.5513514,4.59 26.4648649,4.59 L24.0432432,4.59 C23.9567568,4.59 23.9567568,4.59 23.9567568,4.68 L23.9567568,6.48 C23.9567568,6.57 23.9567568,6.57 24.0432432,6.57 L26.9837838,6.57 C27.0702703,6.57 27.0702703,6.57 27.0702703,6.66 L27.0702703,8.1 C27.0702703,8.19 27.0702703,8.28 26.9837838,8.28 Z" id="Path"></path>
            <path d="M33.9027027,8.28 L32.6054054,8.28 C32.5189189,8.28 32.5189189,8.28 32.5189189,8.19 L31.3945946,4.95 C31.3945946,4.86 31.3081081,4.86 31.3081081,4.86 L30.1837838,4.86 C30.0972973,4.86 30.0972973,4.86 30.0972973,4.95 L30.0972973,8.1 C30.0972973,8.19 30.0972973,8.19 30.0108108,8.19 L28.8,8.19 C28.7135135,8.19 28.7135135,8.19 28.7135135,8.1 L28.7135135,0.18 C28.7135135,0.09 28.7135135,0.09 28.8,0.09 L31.5675676,0.09 C32.9513514,0.09 33.9027027,0.99 33.9027027,2.52 L33.9027027,2.61 C33.9027027,3.24 33.3837838,4.05 32.8648649,4.41 C32.8648649,4.41 32.7783784,4.5 32.7783784,4.5 C32.7783784,4.5 32.7783784,4.59 32.8648649,4.68 L33.9027027,7.92 C33.9027027,8.01 33.9891892,8.1 33.9891892,8.1 C33.9891892,8.19 33.9891892,8.28 33.9027027,8.28 Z M32.4324324,2.43 C32.4324324,1.89 32,1.53 31.5675676,1.53 L30.1837838,1.53 C30.0972973,1.53 30.0972973,1.53 30.0972973,1.62 L30.0972973,3.33 C30.0972973,3.42 30.0972973,3.42 30.1837838,3.42 L31.5675676,3.42 C32.0864865,3.42 32.4324324,2.97 32.4324324,2.52 L32.4324324,2.43 Z" id="Shape"></path>
            <path d="M40.0432432,8.28 L35.6324324,8.28 C35.5459459,8.28 35.5459459,8.28 35.5459459,8.19 L35.5459459,0.27 C35.5459459,0.18 35.5459459,0.18 35.6324324,0.18 L40.0432432,0.18 C40.1297297,0.18 40.1297297,0.18 40.1297297,0.27 L40.1297297,1.35 C40.1297297,1.44 40.1297297,1.44 40.0432432,1.44 L37.1027027,1.44 C37.0162162,1.44 37.0162162,1.44 37.0162162,1.53 L37.0162162,3.24 C37.0162162,3.33 37.0162162,3.33 37.1027027,3.33 L39.5243243,3.33 C39.6108108,3.33 39.6108108,3.33 39.6108108,3.42 L39.6108108,4.5 C39.6108108,4.59 39.6108108,4.59 39.5243243,4.59 L37.1027027,4.59 C37.0162162,4.59 37.0162162,4.59 37.0162162,4.68 L37.0162162,6.48 C37.0162162,6.57 37.0162162,6.57 37.1027027,6.57 L40.0432432,6.57 C40.1297297,6.57 40.1297297,6.57 40.1297297,6.66 L40.1297297,8.1 C40.1297297,8.19 40.1297297,8.28 40.0432432,8.28 Z" id="Path"></path>
            <path d="M44.627027,8.28 L41.8594595,8.28 C41.772973,8.28 41.772973,8.28 41.772973,8.19 L41.772973,0.27 C41.772973,0.18 41.772973,0.18 41.8594595,0.18 L44.627027,0.18 C46.0108108,0.18 46.9621622,1.08 46.9621622,2.61 L46.9621622,5.94 C46.9621622,7.29 46.0108108,8.28 44.627027,8.28 Z M45.4918919,2.43 C45.4918919,1.89 45.0594595,1.53 44.627027,1.53 L43.2432432,1.53 C43.1567568,1.53 43.1567568,1.53 43.1567568,1.62 L43.1567568,6.75 C43.1567568,6.84 43.1567568,6.84 43.2432432,6.84 L44.627027,6.84 C45.1459459,6.84 45.4918919,6.48 45.4918919,5.94 L45.4918919,2.43 Z" id="Shape"></path>
            <path d="M54.0540541,8.28 L51.2864865,8.28 C51.2,8.28 51.2,8.28 51.2,8.19 L51.2,0.27 C51.2,0.18 51.2,0.18 51.2864865,0.18 L54.0540541,0.18 C55.4378378,0.18 56.3891892,1.08 56.3891892,2.61 L56.3891892,2.7 C56.3891892,3.15 56.1297297,3.69 55.6972973,4.05 C55.6972973,4.05 55.6108108,4.14 55.6108108,4.14 C55.6108108,4.14 55.6108108,4.23 55.6972973,4.23 C56.0432432,4.59 56.3891892,5.22 56.3891892,5.67 L56.3891892,5.85 C56.3891892,7.29 55.5243243,8.28 54.0540541,8.28 Z M55.0054054,2.43 C55.0054054,1.89 54.572973,1.53 54.1405405,1.53 L52.7567568,1.53 C52.6702703,1.53 52.6702703,1.53 52.6702703,1.62 L52.6702703,3.33 C52.6702703,3.42 52.6702703,3.42 52.7567568,3.42 L54.1405405,3.42 C54.6594595,3.42 55.0054054,2.97 55.0054054,2.52 L55.0054054,2.43 Z M55.0054054,5.67 C55.0054054,5.13 54.572973,4.77 54.1405405,4.77 L52.7567568,4.77 C52.6702703,4.77 52.6702703,4.77 52.6702703,4.86 L52.6702703,6.66 C52.6702703,6.75 52.6702703,6.75 52.7567568,6.75 L54.1405405,6.75 C54.6594595,6.75 55.0054054,6.39 55.0054054,5.85 L55.0054054,5.67 Z" id="Shape"></path>
            <path d="M62.9621622,0.45 L60.972973,4.41 C60.8864865,4.5 60.8864865,4.59 60.8864865,4.77 L60.8864865,8.1 C60.8864865,8.19 60.8864865,8.19 60.8,8.19 L59.5891892,8.19 C59.5027027,8.19 59.5027027,8.19 59.5027027,8.1 L59.5027027,4.68 C59.5027027,4.59 59.5027027,4.5 59.4162162,4.32 L57.427027,0.36 C57.3405405,0.27 57.3405405,0.18 57.3405405,0.18 C57.3405405,0.09 57.427027,0.09 57.5135135,0.09 L58.8972973,0.09 C58.9837838,0.09 58.9837838,0.09 58.9837838,0.18 L60.1945946,2.7 C60.1945946,2.79 60.2810811,2.79 60.2810811,2.79 C60.2810811,2.79 60.3675676,2.79 60.3675676,2.7 L61.5783784,0.18 C61.5783784,0.18 61.6648649,0.09 61.6648649,0.09 L63.0486486,0.09 C63.1351351,0.09 63.2216216,0.09 63.2216216,0.18 C63.0486486,0.27 62.9621622,0.36 62.9621622,0.45 Z" id="Path"></path>
        </g>
        <g id="Page-1_2_" transform="translate(164.000000, 155.000000)" fill="#FFFFFF" fill-rule="nonzero">
            <g id="Morressier_Logo_RGB_2_">
                <g id="Group_3_">
                    <path d="M23.0762431,2.3 L14.638674,25.8 L14.4353591,25.8 L4.37127072,2.2 L4.37127072,23.7 C4.37127072,25 4.98121547,25.1 9.14917127,25.3 L9.14917127,25.7 L0.813259669,25.7 L0.813259669,25.3 C3.76132597,25.1 4.06629834,25.1 4.06629834,23.7 L4.06629834,2.6 C4.06629834,1.3 3.76132597,1.2 0.813259669,1 L0.813259669,0.6 L8.13259669,0.6 L16.2651934,19.6 L23.1779006,0.6 L29.7856354,0.6 L29.7856354,1 C27.2441989,1.2 27.040884,1.2 27.040884,2.6 L27.040884,23.7 C27.040884,25 27.3458564,25.1 29.7856354,25.3 L29.7856354,25.7 L20.0265193,25.7 L20.0265193,25.3 C22.5679558,25.1 22.7712707,25.1 22.7712707,23.7 L23.0762431,2.3 Z" id="Path_18_"></path>
                    <path d="M32.8353591,16.7 C32.8353591,11.5 36.2917127,7.4 41.679558,7.4 C47.0674033,7.4 50.5237569,11.5 50.5237569,16.7 C50.5237569,21.9 47.0674033,26 41.679558,26 C36.2917127,26 32.8353591,21.9 32.8353591,16.7 Z M37.1049724,16.7 C37.1049724,22.6 38.8331492,25.6 41.679558,25.6 C44.5259669,25.6 46.2541436,22.6 46.2541436,16.7 C46.2541436,10.8 44.5259669,7.8 41.679558,7.8 C38.8331492,7.8 37.1049724,10.8 37.1049724,16.7 Z" id="Shape_11_"></path>
                    <path d="M53.7767956,25.3 C56.318232,25.1 56.521547,25.1 56.521547,23.7 L56.521547,10.3 C56.521547,8.8 56.2165746,8.8 53.7767956,8.6 L53.7767956,8.2 L60.1812155,7.4 L60.5878453,7.4 L60.3845304,11.5 L60.5878453,11.5 C62.2143646,8.9 63.840884,7.4 65.8740331,7.4 C66.9922652,7.4 68.0088398,8.1 68.0088398,9.5 C68.0088398,10.5 67.1955801,11.5 66.1790055,11.5 C64.959116,11.5 64.5524862,9.9 63.4342541,9.9 C62.519337,9.9 61.6044199,10.6 60.5878453,11.9 L60.5878453,23.7 C60.5878453,25 60.8928177,25.1 64.1458564,25.3 L64.1458564,25.7 L53.7767956,25.7 L53.7767956,25.3 Z" id="Path_17_"></path>
                    <path d="M70.4486188,25.3 C72.8883978,25.1 73.1933702,25 73.1933702,23.7 L73.1933702,10.3 C73.1933702,8.8 72.8883978,8.8 70.4486188,8.6 L70.4486188,8.2 L76.8530387,7.4 L77.2596685,7.4 L77.0563536,11.5 L77.2596685,11.5 C78.8861878,8.9 80.5127072,7.4 82.5458564,7.4 C83.6640884,7.4 84.680663,8.1 84.680663,9.5 C84.680663,10.5 83.8674033,11.5 82.8508287,11.5 C81.6309392,11.5 81.2243094,9.9 80.1060773,9.9 C79.1911602,9.9 78.2762431,10.6 77.2596685,11.9 L77.2596685,23.7 C77.2596685,25 77.5646409,25.1 80.8176796,25.3 L80.8176796,25.7 L70.4486188,25.7 L70.4486188,25.3 Z" id="Path_16_"></path>
                    <path d="M102.064088,13.1 C102.064088,13.8 101.962431,14.6 101.759116,15.2 L90.4751381,15.2 L90.4751381,15.9 C90.4751381,21.6 93.5248619,24.4 97.0828729,24.4 C99.2176796,24.4 100.742541,23.5 101.759116,22.7 L101.860773,23 C101.149171,23.6 99.1160221,25.9 95.1513812,25.9 C89.3569061,25.9 86.4088398,21.6 86.4088398,16.8 C86.4088398,10.8 90.9834254,7.4 95.558011,7.4 C98.8110497,7.5 102.064088,8.9 102.064088,13.1 Z M90.4751381,14.9 L98.0994475,14.9 C98.3027624,14 98.4044199,12.4 98.4044199,11.9 C98.4044199,8.9 97.1845304,7.8 95.3546961,7.8 C92.8132597,7.8 90.7801105,10.6 90.4751381,14.9 Z" id="Shape_10_"></path>
                    <path d="M117.414365,13.2 C116.80442,10.5 114.364641,7.9 112.026519,7.9 C109.99337,7.9 108.875138,9 108.875138,10.6 C108.875138,15.5 118.532597,14.5 118.532597,20.6 C118.532597,24 115.787845,26 111.61989,26 C109.688398,26 107.350276,25.5 105.927072,24.8 L105.520442,20 L105.927072,20 C106.943646,24.1 109.485083,25.7 111.823204,25.7 C114.161326,25.7 115.482873,24.3 115.482873,22.5 C115.482873,17.7 105.723757,18.7 105.723757,12.5 C105.723757,9.7 108.061878,7.6 112.229834,7.6 C113.958011,7.6 115.99116,8 117.414365,8.7 L117.719337,13.3 L117.414365,13.3 L117.414365,13.2 Z" id="Path_15_"></path>
                    <path d="M134.086188,13.2 C133.476243,10.5 131.036464,7.9 128.698343,7.9 C126.665193,7.9 125.546961,9 125.546961,10.6 C125.546961,15.5 135.20442,14.5 135.20442,20.6 C135.20442,24 132.459669,26 128.291713,26 C126.360221,26 124.022099,25.5 122.598895,24.8 L122.192265,20 L122.598895,20 C123.61547,24.1 126.156906,25.7 128.495028,25.7 C130.833149,25.7 132.154696,24.3 132.154696,22.5 C132.154696,17.7 122.39558,18.7 122.39558,12.5 C122.39558,9.7 124.733702,7.6 128.901657,7.6 C130.629834,7.6 132.662983,8 134.086188,8.7 L134.39116,13.3 L134.086188,13.3 L134.086188,13.2 Z" id="Path_14_"></path>
                    <path d="M145.268508,23.7 C145.268508,25 145.573481,25.1 148.01326,25.3 L148.01326,25.7 L138.457459,25.7 L138.457459,25.3 C140.998895,25.1 141.20221,25.1 141.20221,23.7 L141.20221,10.3 C141.20221,8.8 140.897238,8.8 138.457459,8.6 L138.457459,8.2 L144.861878,7.4 L145.268508,7.4 L145.268508,23.7 Z M143.133702,0.9 C144.658564,0.9 145.776796,1.8 145.776796,3.2 C145.776796,4.7 144.658564,5.5 143.133702,5.5 C141.60884,5.5 140.490608,4.6 140.490608,3.2 C140.490608,1.8 141.60884,0.9 143.133702,0.9 Z" id="Shape_9_"></path>
                    <path d="M166.41326,13.1 C166.41326,13.8 166.311602,14.6 166.108287,15.2 L154.722652,15.2 L154.722652,15.9 C154.722652,21.6 157.772376,24.4 161.330387,24.4 C163.465193,24.4 164.990055,23.5 166.00663,22.7 L166.108287,23 C165.396685,23.6 163.363536,25.9 159.398895,25.9 C153.60442,25.9 150.656354,21.6 150.656354,16.8 C150.656354,10.8 155.230939,7.4 159.805525,7.4 C163.058564,7.5 166.41326,8.9 166.41326,13.1 Z M154.722652,14.9 L162.346961,14.9 C162.550276,14 162.651934,12.4 162.651934,11.9 C162.651934,8.9 161.432044,7.8 159.60221,7.8 C157.060773,7.8 155.027624,10.6 154.722652,14.9 Z" id="Shape_8_"></path>
                    <path d="M169.564641,25.3 C172.106077,25.1 172.309392,25.1 172.309392,23.7 L172.309392,10.3 C172.309392,8.8 172.00442,8.8 169.564641,8.6 L169.564641,8.2 L175.969061,7.4 L176.375691,7.4 L176.172376,11.5 L176.375691,11.5 C178.00221,8.9 179.628729,7.4 181.661878,7.4 C182.78011,7.4 183.796685,8.1 183.796685,9.5 C183.796685,10.5 182.983425,11.5 181.966851,11.5 C180.746961,11.5 180.340331,9.9 179.222099,9.9 C178.307182,9.9 177.392265,10.6 176.375691,11.9 L176.375691,23.7 C176.375691,25 176.680663,25.1 179.933702,25.3 L179.933702,25.7 L169.666298,25.7 L169.666298,25.3 L169.564641,25.3 Z" id="Path_13_"></path>
                </g>
            </g>
        </g>
    </g>
</svg>